<?xml version="1.0" encoding="utf-8"?>
<!-- Generator: Adobe Illustrator 22.0.0, SVG Export Plug-In . SVG Version: 6.00 Build 0)  -->
<svg version="1.1" id="Layer_1" xmlns="http://www.w3.org/2000/svg" xmlns:xlink="http://www.w3.org/1999/xlink" x="0px" y="0px"
	 viewBox="0 0 64 64" style="enable-background:new 0 0 64 64;" xml:space="preserve">
<style type="text/css">
	.st0{fill:#89C0C7;}
	.st1{fill:#333333;}
</style>
<g>
	<circle class="st0" cx="32" cy="32" r="31"/>
</g>
<g>
	<path class="st1" d="M38.6,53H21.4c-3,0-5.4-2.4-5.4-5.4V32.4c0-3,2.4-5.4,5.4-5.4h17.1c3,0,5.4,2.4,5.4,5.4v15.1
		C44,50.6,41.6,53,38.6,53z"/>
	<circle class="st1" cx="22" cy="17" r="8"/>
	<circle class="st1" cx="39" cy="17" r="8"/>
	<path class="st1" d="M50.4,46.5l-7.7-3.3c-1,0-1.8-0.8-1.8-1.8v-2.9c0-1,0.8-1.8,1.8-1.8l7.7-3.3c2,0,3.6,1.6,3.6,3.6v5.8
		C54,44.9,52.4,46.5,50.4,46.5z"/>
</g>
</svg>
